<?xml version="1.0" encoding="UTF-8"?>
<svg id="Layer_2" data-name="Layer 2" xmlns="http://www.w3.org/2000/svg" viewBox="0 0 1199.25 1136.39">
  <defs>
    <style>
      .cls-1 {
        fill: #34211b;
      }
    </style>
  </defs>
  <g id="Layer_1-2" data-name="Layer 1">
    <g>
      <path class="cls-1" d="M1142.41,156.25C1046.17,47.22,835.44,10.14,692.71,2.81c-78.27-4-154.58-3.41-233.09-.2C343.57,7.4,134.61,38.27,46.41,108.93c-18.2,14.56-24.13,40.57-10.16,59.79l53.24,73.25,170.51,235.4,88.04,120.57,118.56-109.74,155.21-144.77,45.67-43.16,66.74-64.23,43.9-42.8c-71.09,7.38-137.63,15.38-208.02,17.38-67.05,1.92-131.39,1.73-198.09-1.22-62.3-2.71-122.49-10.24-182.91-24.13-28.88-6.63-83.61-22.76-86.51-41.74-3.61-23.58,54.57-45.24,85.92-54.34,78.51-22.83,158.11-32.96,239.99-37.9,97.65-5.85,206.88,4.75,299.2,34.49,86.31,27.82,173.96,86.31,198.17,175.77,26.99,99.73-51.32,173.65-137.75,214.88-50.57,24.13-102.71,37.82-157.56,49.67l-149.68,32.33c-116.52,25.15-239.56,101.97-328.78,181.06-27.15,24.09-51.51,48.77-75.76,75.56-31.07,34.41-56.22,72.62-69.84,116.41-17.66,56.77,1.22,114.92,48.96,149.25,57.67,41.51,141.48,46.14,190.05-4.83,34.84-36.53,34.88-84.9,8.12-125.35-20.64-31.19-24.72-71.25-21.89-109.31,8.2-109.54,88.39-198.72,193.11-227.99,53.48-14.95,104.95-18.79,160.51-19.85l143.32-2.79c57.4-1.1,111.86-11.38,167.96-23.46,49.47-10.67,96.08-26.21,141.63-47.43,32.92-15.38,61.83-34.37,88.39-58.22,40.29-36.17,65.76-81.45,71.41-135.87,6.47-62.19-14.09-122.29-55.67-169.37ZM248.23,234.48c72.9,11.38,144.34,14.2,218.18,14.12l135.12-3.69c-70.11,16.48-140.65,24.95-213.16,28.17-57.52,2.55-111.97-5.3-168.27-13.3l69.68,157.48c15.18,34.33,30.56,65.95,42.84,102.36L104.05,201.53c48.06,12.71,94.63,25.23,144.18,32.96Z"/>
      <path class="cls-1" d="M796.48,676.1c-99.22-41.04-205.27-59.79-312.26-49-45.75,4.59-88.51,17.62-127.82,44.02l67.21,2.16c110.01,10,209.39,73.68,275.81,160.15,26.72,34.76,46.77,71.52,65.99,110.72l31.54,64.46c17.76,36.26,47.91,64.66,82.63,84.6,36.19,20.79,77.22,33.29,118.45,38.97.88.12,1.78.3,2.68.48h0c17.23,2.35,36.77,3.89,58.21,3.73,9.73-.07,18.9-.56,27.7-1.23,1.41.04,2.94-.09,4.49-.32.57-.05,1.19-.07,1.75-.12,0-.05-.02-.1-.03-.15,2.13-.38,4.1-.82,5.36-.97,6.24-.74,12.46-1.66,18.65-2.74,25.34-4.43,46.41-15.58,63.13-33.15,36.45-38.37,4.79-91.49-24.87-134.38-89.02-128.61-213.63-227.28-358.64-287.23Z"/>
    </g>
  </g>
</svg>